<?xml version="1.0" encoding="iso-8859-1"?>
<!-- Generator: Adobe Illustrator 18.0.0, SVG Export Plug-In . SVG Version: 6.00 Build 0)  -->
<!DOCTYPE svg PUBLIC "-//W3C//DTD SVG 1.1//EN" "http://www.w3.org/Graphics/SVG/1.1/DTD/svg11.dtd">
<svg version="1.1" id="Capa_1" xmlns="http://www.w3.org/2000/svg" xmlns:xlink="http://www.w3.org/1999/xlink" x="0px" y="0px"
	 viewBox="0 0 339.663 339.663" style="enable-background:new 0 0 339.663 339.663;" xml:space="preserve">
<g>
	<path d="M330.227,30.788c-4.981-6.227-15.891-17.717-32.985-24.704c-22.394-9.153-47.851-7.973-75.664,3.505
		C173.756,29.319,157.329,74.84,151.93,89.8c-3.702,10.269-5.929,21.812-6.653,34.311c-2.566,3.525-4.669,7.407-6.207,11.563
		c-3.36-1.679-7.419-4.161-11.617-7.821c-4.011-3.501-8.142-11.171-12.925-20.054c-9.374-17.409-21.04-39.075-41.632-48.274
		c-16.164-7.229-30.057-4.623-38.865-1.163C20.452,63.695,10.91,74.024,7.791,81.365c-3.114,7.342-8.044,22.4-6.076,40.762
		c2.578,24.055,15.702,45.899,39.009,64.928c25.626,20.917,54.417,25.541,75.966,25.54c12.163,0,22.023-1.474,27.696-2.322
		c10.774-1.616,21.979-5.133,33.32-10.425c2.094,0.28,4.227,0.439,6.396,0.439c3.355,0,6.629-0.349,9.792-1.007
		c0.358,3.748,0.406,8.509-0.472,13.997c-0.838,5.254-5.15,12.825-10.143,21.59c-9.785,17.178-21.962,38.556-18.849,60.892
		c2.446,17.544,12.029,27.941,19.638,33.574c9.904,7.333,21.296,10.331,29.338,10.331c1.477,0,2.843-0.102,4.064-0.296
		c7.877-1.251,23.261-5.054,37.783-16.456c19.027-14.938,30.587-37.649,34.357-67.503c6.494-51.36-24.955-88.115-35.288-100.191
		c-7.076-8.279-16.003-15.919-26.515-22.736c-1.983-4.36-4.597-8.372-7.73-11.92c3.08-2.166,7.201-4.568,12.428-6.529
		c4.983-1.869,13.7-1.861,23.784-1.855c19.745,0.012,44.375,0.031,62.251-13.719c14.041-10.8,18.34-24.271,19.476-33.67
		C339.767,50.305,335.205,37.011,330.227,30.788z M143.202,202.361c-14.858,2.222-60.072,8.982-97.419-21.503
		C-2.15,141.724,8.397,100.427,15.155,84.491c2.075-4.883,9.593-13.888,21.801-18.683c7.383-2.899,19.045-5.077,32.676,1.021
		c18.104,8.088,29.055,28.423,37.853,44.763c5.152,9.568,9.602,17.832,14.71,22.29c4.524,3.945,9.563,7.226,14.726,9.635
		c-0.528,2.846-0.817,5.774-0.817,8.77c0,19.783,12.033,36.806,29.162,44.144C157.747,199.286,150.357,201.288,143.202,202.361z
		 M144.103,152.287c0-22.056,17.944-40,40-40c22.056,0,40,17.944,40,40c0,22.056-17.944,40-40,40
		C162.047,192.287,144.103,174.343,144.103,152.287z M248.244,160.418c9.765,11.412,39.481,46.141,33.431,93.988
		c-7.754,61.396-48.361,74.344-65.46,77.061c-5.233,0.832-16.847-0.762-27.386-8.564c-6.377-4.721-14.412-13.455-16.474-28.249
		c-2.738-19.639,8.692-39.705,17.876-55.828c5.379-9.444,10.025-17.599,11.091-24.288c0.962-6.009,1.075-11.913,0.365-17.603
		c17.791-7.032,30.415-24.388,30.415-44.649c0-2.528-0.199-5.009-0.578-7.432C237.934,149.716,243.546,154.921,248.244,160.418z
		 M330.076,63.828c-0.951,7.878-4.571,19.181-16.411,28.289c-15.716,12.09-38.818,12.085-57.368,12.06
		c-10.866-0.006-20.253-0.014-26.599,2.365c-5.624,2.11-10.911,4.99-15.49,8.397c-8.24-6.655-18.712-10.652-30.105-10.652
		c-11.305,0-21.702,3.938-29.914,10.502c1.056-7.982,2.807-15.45,5.267-22.274c5.101-14.135,20.623-57.15,65.173-75.531
		c57.206-23.608,88.537,5.284,99.35,18.802C327.291,39.925,331.648,50.809,330.076,63.828z"/>
	<path d="M184.103,126.404c-14.271,0-25.882,11.611-25.882,25.882s11.611,25.882,25.882,25.882
		c14.272,0,25.882-11.611,25.882-25.882S198.375,126.404,184.103,126.404z M184.103,170.169c-9.86,0-17.882-8.022-17.882-17.882
		c0-9.86,8.022-17.882,17.882-17.882c9.86,0,17.882,8.022,17.882,17.882C201.986,162.147,193.964,170.169,184.103,170.169z"/>
</g>
<g>
</g>
<g>
</g>
<g>
</g>
<g>
</g>
<g>
</g>
<g>
</g>
<g>
</g>
<g>
</g>
<g>
</g>
<g>
</g>
<g>
</g>
<g>
</g>
<g>
</g>
<g>
</g>
<g>
</g>
</svg>
