<svg id="Capa_1" enable-background="new 0 0 512 512" height="512" viewBox="0 0 512 512" width="512" xmlns="http://www.w3.org/2000/svg"><path d="m443.779 144.395-7.416-11.124-115.545 59.151c4.358-10.85 9.845-21.376 16.519-31.386l2.519-3.778v-88.401h-68.856v-68.857h-167.714v68.857h-68.857v88.399l2.519 3.778c38.46 57.689 38.46 132.24 0 189.93l-2.519 3.778v88.399h68.857v68.859h167.714v-68.857h68.857v-88.399l-2.519-3.778c-6.674-10.01-12.162-20.537-16.519-31.386l115.546 59.151 7.416-11.124c22.106-33.159 33.792-71.752 33.791-111.605-.001-39.856-11.686-78.448-33.793-111.607zm-165.194 111.605c0 30.828 6.997 60.898 20.395 88.286h-223.674c13.398-27.388 20.395-57.458 20.395-88.286 0-30.827-6.997-60.898-20.395-88.285h223.673c-13.397 27.387-20.394 57.458-20.394 88.285zm-145.299-226h107.714v38.857h-107.714zm176.571 68.857v38.857h-245.428v-38.857zm-68.857 383.143h-107.714v-38.857h107.714zm-176.571-68.857v-38.856h245.428v38.856zm361.348-73.537-115.514-59.135c-2.354-16.229-2.354-32.713 0-48.942l115.514-59.135c29.183 52.023 29.183 115.189 0 167.212z"/></svg>